<svg width="32" height="32" viewBox="0 0 32 32" fill="none" xmlns="http://www.w3.org/2000/svg">
  <defs>
    <!-- Sunflower yellow gradient -->
    <linearGradient id="faviconSunflowerGradient" x1="0%" y1="0%" x2="100%" y2="100%">
      <stop offset="0%" style="stop-color:#FFD93D;stop-opacity:1" />
      <stop offset="50%" style="stop-color:#F4C430;stop-opacity:1" />
      <stop offset="100%" style="stop-color:#FFB81C;stop-opacity:1" />
    </linearGradient>
    <!-- Center gradient -->
    <linearGradient id="faviconCenterGradient" x1="0%" y1="0%" x2="100%" y2="100%">
      <stop offset="0%" style="stop-color:#8B4B6B;stop-opacity:1" />
      <stop offset="100%" style="stop-color:#A0516A;stop-opacity:1" />
    </linearGradient>
    <!-- Background gradient -->
    <linearGradient id="faviconBgGradient" x1="0%" y1="0%" x2="100%" y2="100%">
      <stop offset="0%" style="stop-color:#FFD93D;stop-opacity:0.1" />
      <stop offset="100%" style="stop-color:#B565A7;stop-opacity:0.1" />
    </linearGradient>
  </defs>
  
  <!-- Background circle -->
  <circle cx="16" cy="16" r="16" fill="url(#faviconBgGradient)"/>
  
  <!-- Main sunflower -->
  <g transform="translate(16, 16)">
    <!-- Sunflower petals -->
    <g>
      <!-- Outer petals -->
      <ellipse cx="0" cy="-8" rx="2" ry="4" fill="url(#faviconSunflowerGradient)" transform="rotate(0)"/>
      <ellipse cx="0" cy="-8" rx="2" ry="4" fill="url(#faviconSunflowerGradient)" transform="rotate(45)"/>
      <ellipse cx="0" cy="-8" rx="2" ry="4" fill="url(#faviconSunflowerGradient)" transform="rotate(90)"/>
      <ellipse cx="0" cy="-8" rx="2" ry="4" fill="url(#faviconSunflowerGradient)" transform="rotate(135)"/>
      <ellipse cx="0" cy="-8" rx="2" ry="4" fill="url(#faviconSunflowerGradient)" transform="rotate(180)"/>
      <ellipse cx="0" cy="-8" rx="2" ry="4" fill="url(#faviconSunflowerGradient)" transform="rotate(225)"/>
      <ellipse cx="0" cy="-8" rx="2" ry="4" fill="url(#faviconSunflowerGradient)" transform="rotate(270)"/>
      <ellipse cx="0" cy="-8" rx="2" ry="4" fill="url(#faviconSunflowerGradient)" transform="rotate(315)"/>
    </g>
    
    <!-- Sunflower center -->
    <circle cx="0" cy="0" r="4.5" fill="url(#faviconCenterGradient)"/>
    
    <!-- Center dots pattern -->
    <circle cx="-1" cy="-1" r="0.6" fill="#7A4458" opacity="0.6"/>
    <circle cx="1" cy="-0.5" r="0.4" fill="#7A4458" opacity="0.4"/>
    <circle cx="-0.5" cy="1" r="0.3" fill="#7A4458" opacity="0.5"/>
    <circle cx="0.8" cy="0.8" r="0.5" fill="#7A4458" opacity="0.3"/>
  </g>
</svg>